<svg width="1200" height="675" viewBox="0 0 1200 675" fill="none" xmlns="http://www.w3.org/2000/svg">
  <rect width="1200" height="675" rx="40" fill="#09131F"/>
  <circle cx="1042" cy="86" r="228" fill="#2F6FED" fill-opacity="0.20"/>
  <circle cx="174" cy="590" r="240" fill="#17B5C2" fill-opacity="0.14"/>
  <rect x="76" y="76" width="1048" height="523" rx="34" fill="url(#paint0_linear)" stroke="rgba(255,255,255,0.10)"/>
  <text x="126" y="126" fill="#8DE1D8" font-family="Inter, Arial, sans-serif" font-size="28" font-weight="700" letter-spacing="4">OPPORTUNITY</text>
  <text x="126" y="214" fill="#FFFFFF" font-family="Plus Jakarta Sans, Arial, sans-serif" font-size="60" font-weight="800">Career-ready roles</text>
  <text x="126" y="284" fill="#FFFFFF" font-family="Plus Jakarta Sans, Arial, sans-serif" font-size="60" font-weight="800">for high-signal talent.</text>
  <rect x="126" y="338" width="286" height="18" rx="9" fill="#DDE8F8" fill-opacity="0.44"/>
  <rect x="126" y="372" width="228" height="18" rx="9" fill="#DDE8F8" fill-opacity="0.28"/>
  <rect x="126" y="426" width="178" height="46" rx="23" fill="#2F6FED"/>
  <rect x="714" y="174" width="280" height="112" rx="28" fill="#0F1E31" stroke="rgba(255,255,255,0.12)"/>
  <rect x="714" y="314" width="130" height="150" rx="24" fill="#0F1E31" stroke="rgba(255,255,255,0.12)"/>
  <rect x="864" y="314" width="130" height="150" rx="24" fill="#0F1E31" stroke="rgba(255,255,255,0.12)"/>
  <circle cx="774" cy="230" r="26" fill="#2F6FED"/>
  <path d="M824 230H944" stroke="#FFFFFF" stroke-opacity="0.7" stroke-width="12" stroke-linecap="round"/>
  <path d="M824 258H912" stroke="#FFFFFF" stroke-opacity="0.3" stroke-width="10" stroke-linecap="round"/>
  <defs>
    <linearGradient id="paint0_linear" x1="126" y1="86" x2="1040" y2="592" gradientUnits="userSpaceOnUse">
      <stop stop-color="#13243A"/>
      <stop offset="1" stop-color="#0A1525"/>
    </linearGradient>
  </defs>
</svg>