<svg width="1200" height="675" viewBox="0 0 1200 675" fill="none" xmlns="http://www.w3.org/2000/svg">
  <rect width="1200" height="675" rx="40" fill="#0A1321"/>
  <circle cx="1032" cy="86" r="232" fill="#A78BFA" fill-opacity="0.24"/>
  <circle cx="170" cy="592" r="220" fill="#F59E0B" fill-opacity="0.16"/>
  <rect x="76" y="76" width="1048" height="523" rx="34" fill="url(#paint0_linear)" stroke="rgba(255,255,255,0.10)"/>
  <text x="126" y="126" fill="#FBBF24" font-family="Inter, Arial, sans-serif" font-size="28" font-weight="700" letter-spacing="4">FEATURED ROLE</text>
  <text x="126" y="214" fill="#FFFFFF" font-family="Plus Jakarta Sans, Arial, sans-serif" font-size="60" font-weight="800">Premium hiring</text>
  <text x="126" y="284" fill="#FFFFFF" font-family="Plus Jakarta Sans, Arial, sans-serif" font-size="60" font-weight="800">for top-tier candidates.</text>
  <rect x="126" y="338" width="316" height="18" rx="9" fill="#F7E7C1" fill-opacity="0.34"/>
  <rect x="126" y="372" width="246" height="18" rx="9" fill="#F7E7C1" fill-opacity="0.24"/>
  <rect x="126" y="426" width="184" height="46" rx="23" fill="#A78BFA"/>
  <path d="M822 182L846.717 232.076L902 240.111L862 279.096L871.434 334.111L822 308.076L772.566 334.111L782 279.096L742 240.111L797.283 232.076L822 182Z" fill="#F59E0B"/>
  <rect x="718" y="388" width="276" height="96" rx="26" fill="#101D30" stroke="rgba(255,255,255,0.12)"/>
  <path d="M760 436H948" stroke="#FFFFFF" stroke-opacity="0.68" stroke-width="12" stroke-linecap="round"/>
  <path d="M760 466H906" stroke="#FFFFFF" stroke-opacity="0.34" stroke-width="10" stroke-linecap="round"/>
  <defs>
    <linearGradient id="paint0_linear" x1="126" y1="86" x2="1040" y2="592" gradientUnits="userSpaceOnUse">
      <stop stop-color="#1A2140"/>
      <stop offset="1" stop-color="#0A1525"/>
    </linearGradient>
  </defs>
</svg>