<svg width="1200" height="675" viewBox="0 0 1200 675" fill="none" xmlns="http://www.w3.org/2000/svg">
  <rect width="1200" height="675" rx="40" fill="#091320"/>
  <circle cx="954" cy="118" r="240" fill="#2F6FED" fill-opacity="0.18"/>
  <circle cx="162" cy="564" r="224" fill="#17B5C2" fill-opacity="0.14"/>
  <rect x="76" y="76" width="1048" height="523" rx="34" fill="url(#paint0_linear)" stroke="rgba(255,255,255,0.10)"/>
  <text x="128" y="126" fill="#8DE1D8" font-family="Inter, Arial, sans-serif" font-size="28" font-weight="700" letter-spacing="4">SKILLHUB PRO</text>
  <text x="128" y="214" fill="#FFFFFF" font-family="Plus Jakarta Sans, Arial, sans-serif" font-size="62" font-weight="800">Practical learning</text>
  <text x="128" y="286" fill="#FFFFFF" font-family="Plus Jakarta Sans, Arial, sans-serif" font-size="62" font-weight="800">for career momentum.</text>
  <rect x="128" y="340" width="310" height="18" rx="9" fill="#DDE8F8" fill-opacity="0.48"/>
  <rect x="128" y="374" width="228" height="18" rx="9" fill="#DDE8F8" fill-opacity="0.34"/>
  <rect x="128" y="430" width="190" height="46" rx="23" fill="#2F6FED"/>
  <g opacity="0.94">
    <rect x="714" y="162" width="276" height="128" rx="28" fill="#0F1E31" stroke="rgba(255,255,255,0.12)"/>
    <rect x="714" y="314" width="132" height="164" rx="24" fill="#0F1E31" stroke="rgba(255,255,255,0.12)"/>
    <rect x="858" y="314" width="132" height="164" rx="24" fill="#0F1E31" stroke="rgba(255,255,255,0.12)"/>
    <path d="M760 228H944" stroke="#8DE1D8" stroke-width="12" stroke-linecap="round"/>
    <path d="M760 258H888" stroke="#FFFFFF" stroke-opacity="0.4" stroke-width="10" stroke-linecap="round"/>
    <circle cx="780" cy="394" r="24" fill="#2F6FED"/>
    <circle cx="924" cy="394" r="24" fill="#17B5C2"/>
  </g>
  <defs>
    <linearGradient id="paint0_linear" x1="126" y1="86" x2="1040" y2="592" gradientUnits="userSpaceOnUse">
      <stop stop-color="#13243A"/>
      <stop offset="1" stop-color="#0A1525"/>
    </linearGradient>
  </defs>
</svg>