<svg width="1200" height="675" viewBox="0 0 1200 675" fill="none" xmlns="http://www.w3.org/2000/svg">
  <rect width="1200" height="675" rx="40" fill="#0B1320"/>
  <circle cx="978" cy="116" r="228" fill="#17B5C2" fill-opacity="0.16"/>
  <circle cx="164" cy="576" r="226" fill="#2F6FED" fill-opacity="0.18"/>
  <rect x="76" y="76" width="1048" height="523" rx="34" fill="url(#paint0_linear)" stroke="rgba(255,255,255,0.10)"/>
  <text x="128" y="126" fill="#8DE1D8" font-family="Inter, Arial, sans-serif" font-size="28" font-weight="700" letter-spacing="4">DESIGN</text>
  <text x="128" y="216" fill="#FFFFFF" font-family="Plus Jakarta Sans, Arial, sans-serif" font-size="62" font-weight="800">Shape product</text>
  <text x="128" y="288" fill="#FFFFFF" font-family="Plus Jakarta Sans, Arial, sans-serif" font-size="62" font-weight="800">experiences with intent.</text>
  <rect x="128" y="344" width="318" height="18" rx="9" fill="#DDE8F8" fill-opacity="0.48"/>
  <rect x="128" y="378" width="248" height="18" rx="9" fill="#DDE8F8" fill-opacity="0.34"/>
  <g opacity="0.95">
    <rect x="714" y="164" width="278" height="192" rx="28" fill="#0F1E31" stroke="rgba(255,255,255,0.12)"/>
    <circle cx="778" cy="230" r="34" fill="#2F6FED"/>
    <circle cx="850" cy="230" r="34" fill="#17B5C2"/>
    <circle cx="922" cy="230" r="34" fill="#F59E0B"/>
    <rect x="748" y="294" width="210" height="18" rx="9" fill="#EFF6FF" fill-opacity="0.72"/>
    <rect x="714" y="386" width="126" height="126" rx="24" fill="#2F6FED" fill-opacity="0.16"/>
    <rect x="858" y="386" width="134" height="126" rx="24" fill="#17B5C2" fill-opacity="0.16"/>
  </g>
  <rect x="128" y="430" width="188" height="46" rx="23" fill="#17B5C2"/>
  <defs>
    <linearGradient id="paint0_linear" x1="126" y1="86" x2="1040" y2="592" gradientUnits="userSpaceOnUse">
      <stop stop-color="#13223A"/>
      <stop offset="1" stop-color="#0A1424"/>
    </linearGradient>
  </defs>
</svg>